<?xml version="1.0" encoding="utf-8"?>
<!-- Generator: Adobe Illustrator 20.1.0, SVG Export Plug-In . SVG Version: 6.00 Build 0)  -->
<svg version="1.1" id="Layer_1" xmlns="http://www.w3.org/2000/svg" xmlns:xlink="http://www.w3.org/1999/xlink" x="0px" y="0px"
	 viewBox="0 0 1728 1296" style="enable-background:new 0 0 1728 1296;" xml:space="preserve">
<circle style="fill:none;stroke:#FF0000;stroke-width:0.25;stroke-miterlimit:2.6131;" cx="613.2" cy="78.2" r="69.6"/>
<rect x="581.6" y="138.2" style="fill:none;stroke:#FF0000;stroke-width:0.25;stroke-miterlimit:2.6131;" width="63.1" height="23.6"/>
<path style="fill:none;stroke:#FF0000;stroke-width:0.25;stroke-miterlimit:2.6131;" d="M274.6,153.1v-12.9c22.6-11.5,38-34.9,38-62
	c0-38.4-31.1-69.6-69.6-69.6s-69.6,31.1-69.6,69.6c0,27,15.4,50.5,38,62v12.9h-24.6c-8.4,46.1-13.4,103-13.4,164.5
	c0,35.7,4.7,101.1,4.7,101.1s35.3,177.9,64.9,177.9c28.9,0,64.1-170.8,64.1-170.8s5.4-69.8,5.4-108.2c0-61.5-5-118.4-13.4-164.5
	H274.6z M284.5,388.3c0,0-22.8,140.1-41.4,140.1c-19.1,0-41.9-145.9-41.9-145.9s-3-53.7-3-82.9c0-44.3,2.5-85.7,6.8-120.8h4.8
	c-3.6,31.1-5.7,67.7-5.7,106.8c0,26.2,2.6,74.3,2.6,74.3s19.8,130.8,36.4,130.8c16.2,0,36-125.6,36-125.6s3-51.3,3-79.5
	c0-39.1-2.1-75.7-5.7-106.8h4.8c4.3,35.1,6.8,76.4,6.8,120.8C288,331.1,284.5,388.3,284.5,388.3z"/>
<path style="fill:none;stroke:#FF0000;stroke-width:0.25;stroke-miterlimit:2.6131;" d="M114.3,153.1v-14.9h-0.6
	c22.9-11.4,38.6-35,38.6-62.3c0-38.4-31.1-69.6-69.6-69.6c-38.4,0-69.6,31.1-69.6,69.6c0,27.3,15.7,50.9,38.6,62.3h-0.6v14.9H26.6
	c-8.4,46.1-13.4,103-13.4,164.5c0,35.7,4.7,101.1,4.7,101.1s35.3,177.9,64.9,177.9c28.9,0,64.1-170.8,64.1-170.8s5.4-69.8,5.4-108.2
	c0-61.5-5-118.4-13.4-164.5H114.3z M124.2,388.3c0,0-22.8,140.1-41.4,140.1c-19.1,0-41.9-145.9-41.9-145.9s-3-53.7-3-82.9
	c0-44.3,2.5-85.7,6.8-120.8h4.8c-3.6,31.1-5.7,67.7-5.7,106.8c0,26.2,2.6,74.3,2.6,74.3s19.8,130.8,36.4,130.8
	c16.2,0,36-125.6,36-125.6s3-51.3,3-79.5c0-39.1-2.1-75.7-5.7-106.8h4.8c4.3,35.1,6.8,76.4,6.8,120.8
	C127.7,331.1,124.2,388.3,124.2,388.3z"/>
<path style="fill:none;stroke:#FF0000;stroke-width:0.25;stroke-miterlimit:2.6131;" d="M669.4,153.1H557
	c-8.4,46.1-13.4,103-13.4,164.5c0,35.7,4.7,101.1,4.7,101.1s35.3,177.9,64.9,177.9c28.9,0,64.1-170.8,64.1-170.8s5.4-69.8,5.4-108.2
	C682.8,256.1,677.8,199.2,669.4,153.1z M654.6,388.3c0,0-22.8,140.1-41.4,140.1c-19.1,0-41.9-145.9-41.9-145.9s-3-53.7-3-82.9
	c0-44.3,2.5-85.7,6.8-120.8h4.8c-3.6,31.1-5.7,67.7-5.7,106.8c0,26.2,2.6,74.3,2.6,74.3s19.8,130.8,36.4,130.8
	c16.2,0,36-125.6,36-125.6s3-51.3,3-79.5c0-39.1-2.1-75.7-5.7-106.8h4.8c4.3,35.1,6.8,76.4,6.8,120.8
	C658.1,331.1,654.6,388.3,654.6,388.3z"/>
<g>
</g>
<g>
</g>
<g>
</g>
<g>
</g>
<g>
</g>
<g>
</g>
</svg>
